{
 "cells": [
  {
   "cell_type": "code",
   "execution_count": 1,
   "id": "3e4ca28d",
   "metadata": {},
   "outputs": [],
   "source": [
    "# Load a mp4 vide oand compress it to a smaller size using ffmpeg\n",
    "import subprocess\n",
    "import os\n",
    "import sys\n",
    "def compress_video(input_file, output_file, crf=23):\n",
    "    command = [\n",
    "        'ffmpeg',\n",
    "        '-i', input_file,\n",
    "        '-vcodec', 'libx264',\n",
    "        '-crf', str(crf),\n",
    "        output_file\n",
    "    ]\n",
    "    subprocess.run(command, check=True)\n",
    "\n",
    "# Get all the mp4 files in the current directory\n",
    "def get_mp4_files():\n",
    "    mp4_files = []\n",
    "    print(os.listdir('.'))\n",
    "    for file in os.listdir('.'):\n",
    "        if file.endswith('.mp4'):\n",
    "            mp4_files.append(file)\n",
    "        if file.endswith('.MOV'):\n",
    "            mp4_files.append(file)\n",
    "    return mp4_files"
   ]
  },
  {
   "cell_type": "code",
   "execution_count": null,
   "id": "67628117",
   "metadata": {},
   "outputs": [],
   "source": [
    "print(get_mp4_files())\n",
    "for mp4_file in get_mp4_files():\n",
    "    output_file = f'compressed_{mp4_file}'\n",
    "    print(f'Compressing {mp4_file} to {output_file}...')\n",
    "    compress_video(mp4_file, output_file, crf=35)\n",
    "    print(f'Finished compressing {mp4_file}.')"
   ]
  },
  {
   "cell_type": "code",
   "execution_count": 2,
   "id": "8ed6c664",
   "metadata": {},
   "outputs": [
    {
     "name": "stdout",
     "output_type": "stream",
     "text": [
      "['compressed_carla_rain_deflatedtire.mp4', 'table1.mp4', 'compressed_table2.mp4', 'day_bag_forklift.mp4', 'compressed_table1.mp4', 'corl_fewshot_demo2.gif', 'compress_videos.ipynb', 'compressed_day_bag_forklift.mp4', 'compressed_corl_fewshot_demo1.mp4', 'compressed_eggplant2.mp4', 'compressed_day_iphone_forklift.MOV', 'carla_taffic_light.mp4', 'corl_fewshot_demo1.mp4', 'cv.pdf', 'compressed_night_iphone_forklift.mp4', 'profile.jpg', 'iros_continual_demo.gif', 'table2.mp4', 'compressed_carla_roundabout.mp4', 'compressed_eggplant1.mp4', 'compressed_carla_taffic_light.mp4', 'night_iphone_forklift.mp4', 'carla_rain_deflatedtire.mp4', 'eggplant2.mp4', 'corl_fewshot_demo1.gif', 'night_bag_forklift.mp4', 'compressed_iros_continual_demo.mp4', 'compressed_night_bag_forklift.mp4', 'compressed_carla_static_traffic.mp4', 'carla_roundabout.mp4', 'iros_continual_demo.mp4', 'carla_static_traffic.mp4', 'eggplant1.mp4', 'day_iphone_forklift.MOV', 'compressed_corl_fewshot_demo2.mp4', 'corl_fewshot_demo2.mp4']\n",
      "Replaced table1.mp4 with compressed_table1.mp4 because it is smaller.\n",
      "Replaced day_bag_forklift.mp4 with compressed_day_bag_forklift.mp4 because it is smaller.\n",
      "Replaced carla_taffic_light.mp4 with compressed_carla_taffic_light.mp4 because it is smaller.\n",
      "Replaced corl_fewshot_demo1.mp4 with compressed_corl_fewshot_demo1.mp4 because it is smaller.\n",
      "Replaced table2.mp4 with compressed_table2.mp4 because it is smaller.\n",
      "Replaced night_iphone_forklift.mp4 with compressed_night_iphone_forklift.mp4 because it is smaller.\n",
      "Replaced carla_rain_deflatedtire.mp4 with compressed_carla_rain_deflatedtire.mp4 because it is smaller.\n",
      "Replaced eggplant2.mp4 with compressed_eggplant2.mp4 because it is smaller.\n",
      "Replaced night_bag_forklift.mp4 with compressed_night_bag_forklift.mp4 because it is smaller.\n",
      "Replaced carla_roundabout.mp4 with compressed_carla_roundabout.mp4 because it is smaller.\n",
      "Replaced iros_continual_demo.mp4 with compressed_iros_continual_demo.mp4 because it is smaller.\n",
      "Replaced carla_static_traffic.mp4 with compressed_carla_static_traffic.mp4 because it is smaller.\n",
      "Replaced eggplant1.mp4 with compressed_eggplant1.mp4 because it is smaller.\n",
      "Replaced day_iphone_forklift.MOV with compressed_day_iphone_forklift.MOV because it is smaller.\n",
      "Replaced corl_fewshot_demo2.mp4 with compressed_corl_fewshot_demo2.mp4 because it is smaller.\n"
     ]
    }
   ],
   "source": [
    "# For file in get_mp4_files(), replace the original file with the compressed file if the compressed file is smaller than the original file\n",
    "for mp4_file in get_mp4_files():\n",
    "    compressed_file = f'compressed_{mp4_file}'\n",
    "    if os.path.exists(compressed_file):\n",
    "        original_size = os.path.getsize(mp4_file)\n",
    "        compressed_size = os.path.getsize(compressed_file)\n",
    "        if compressed_size < original_size:\n",
    "            os.replace(compressed_file, mp4_file)\n",
    "            print(f'Replaced {mp4_file} with {compressed_file} because it is smaller.')\n",
    "        else:\n",
    "            os.remove(compressed_file)\n",
    "            print(f'Removed {compressed_file} because it is not smaller than {mp4_file}.')\n"
   ]
  },
  {
   "cell_type": "code",
   "execution_count": 4,
   "id": "61d071da",
   "metadata": {},
   "outputs": [
    {
     "name": "stderr",
     "output_type": "stream",
     "text": [
      "ffmpeg version 4.2.7-0ubuntu0.1 Copyright (c) 2000-2022 the FFmpeg developers\n",
      "  built with gcc 9 (Ubuntu 9.4.0-1ubuntu1~20.04.1)\n",
      "  configuration: --prefix=/usr --extra-version=0ubuntu0.1 --toolchain=hardened --libdir=/usr/lib/x86_64-linux-gnu --incdir=/usr/include/x86_64-linux-gnu --arch=amd64 --enable-gpl --disable-stripping --enable-avresample --disable-filter=resample --enable-avisynth --enable-gnutls --enable-ladspa --enable-libaom --enable-libass --enable-libbluray --enable-libbs2b --enable-libcaca --enable-libcdio --enable-libcodec2 --enable-libflite --enable-libfontconfig --enable-libfreetype --enable-libfribidi --enable-libgme --enable-libgsm --enable-libjack --enable-libmp3lame --enable-libmysofa --enable-libopenjpeg --enable-libopenmpt --enable-libopus --enable-libpulse --enable-librsvg --enable-librubberband --enable-libshine --enable-libsnappy --enable-libsoxr --enable-libspeex --enable-libssh --enable-libtheora --enable-libtwolame --enable-libvidstab --enable-libvorbis --enable-libvpx --enable-libwavpack --enable-libwebp --enable-libx265 --enable-libxml2 --enable-libxvid --enable-libzmq --enable-libzvbi --enable-lv2 --enable-omx --enable-openal --enable-opencl --enable-opengl --enable-sdl2 --enable-libdc1394 --enable-libdrm --enable-libiec61883 --enable-nvenc --enable-chromaprint --enable-frei0r --enable-libx264 --enable-shared\n",
      "  libavutil      56. 31.100 / 56. 31.100\n",
      "  libavcodec     58. 54.100 / 58. 54.100\n",
      "  libavformat    58. 29.100 / 58. 29.100\n",
      "  libavdevice    58.  8.100 / 58.  8.100\n",
      "  libavfilter     7. 57.100 /  7. 57.100\n",
      "  libavresample   4.  0.  0 /  4.  0.  0\n",
      "  libswscale      5.  5.100 /  5.  5.100\n",
      "  libswresample   3.  5.100 /  3.  5.100\n",
      "  libpostproc    55.  5.100 / 55.  5.100\n",
      "Input #0, mov,mp4,m4a,3gp,3g2,mj2, from 'day_iphone_forklift.MOV':\n",
      "  Metadata:\n",
      "    major_brand     : isom\n",
      "    minor_version   : 512\n",
      "    compatible_brands: isomiso2avc1mp41\n",
      "    encoder         : Lavf58.29.100\n",
      "  Duration: 00:00:41.01, start: 0.000000, bitrate: 55820 kb/s\n",
      "    Stream #0:0(und): Video: h264 (High) (avc1 / 0x31637661), yuv420p, 3840x2160 [SAR 1:1 DAR 16:9], 55816 kb/s, 59.98 fps, 59.98 tbr, 11997 tbn, 119.97 tbc (default)\n",
      "    Metadata:\n",
      "      handler_name    : VideoHandler\n",
      "Stream mapping:\n",
      "  Stream #0:0 -> #0:0 (h264 (native) -> h264 (libx264))\n",
      "Press [q] to stop, [?] for help\n",
      "[libx264 @ 0x5632196eb9c0] using SAR=1/1\n",
      "[libx264 @ 0x5632196eb9c0] using cpu capabilities: MMX2 SSE2Fast SSSE3 SSE4.2 AVX FMA3 BMI2 AVX2\n",
      "[libx264 @ 0x5632196eb9c0] profile High, level 5.2\n",
      "[libx264 @ 0x5632196eb9c0] 264 - core 155 r2917 0a84d98 - H.264/MPEG-4 AVC codec - Copyleft 2003-2018 - http://www.videolan.org/x264.html - options: cabac=1 ref=3 deblock=1:0:0 analyse=0x3:0x113 me=hex subme=7 psy=1 psy_rd=1.00:0.00 mixed_ref=1 me_range=16 chroma_me=1 trellis=1 8x8dct=1 cqm=0 deadzone=21,11 fast_pskip=1 chroma_qp_offset=-2 threads=36 lookahead_threads=6 sliced_threads=0 nr=0 decimate=1 interlaced=0 bluray_compat=0 constrained_intra=0 bframes=3 b_pyramid=2 b_adapt=1 b_bias=0 direct=1 weightb=1 open_gop=0 weightp=2 keyint=250 keyint_min=25 scenecut=40 intra_refresh=0 rc_lookahead=40 rc=crf mbtree=1 crf=30.0 qcomp=0.60 qpmin=0 qpmax=69 qpstep=4 ip_ratio=1.40 aq=1:1.00\n",
      "Output #0, mp4, to 'compressed_day_iphone_forklift.mp4':\n",
      "  Metadata:\n",
      "    major_brand     : isom\n",
      "    minor_version   : 512\n",
      "    compatible_brands: isomiso2avc1mp41\n",
      "    encoder         : Lavf58.29.100\n",
      "    Stream #0:0(und): Video: h264 (libx264) (avc1 / 0x31637661), yuv420p, 3840x2160 [SAR 1:1 DAR 16:9], q=-1--1, 59.98 fps, 11997 tbn, 59.98 tbc (default)\n",
      "    Metadata:\n",
      "      handler_name    : VideoHandler\n",
      "      encoder         : Lavc58.54.100 libx264\n",
      "    Side data:\n",
      "      cpb: bitrate max/min/avg: 0/0/0 buffer size: 0 vbv_delay: -1\n",
      "frame= 2439 fps= 68 q=38.0 size=   79360kB time=00:00:39.27 bitrate=16552.3kbits/s speed= 1.1x     \r"
     ]
    },
    {
     "name": "stdout",
     "output_type": "stream",
     "text": [
      "Replaced day_iphone_forklift.MOV with compressed_day_iphone_forklift.mp4 because it is smaller.\n"
     ]
    },
    {
     "name": "stderr",
     "output_type": "stream",
     "text": [
      "frame= 2460 fps= 67 q=-1.0 Lsize=   82238kB time=00:00:40.96 bitrate=16447.5kbits/s speed=1.12x    \n",
      "video:82211kB audio:0kB subtitle:0kB other streams:0kB global headers:0kB muxing overhead: 0.033280%\n",
      "[libx264 @ 0x5632196eb9c0] frame I:13    Avg QP:29.77  size:282553\n",
      "[libx264 @ 0x5632196eb9c0] frame P:1120  Avg QP:32.95  size: 56867\n",
      "[libx264 @ 0x5632196eb9c0] frame B:1327  Avg QP:36.93  size: 12674\n",
      "[libx264 @ 0x5632196eb9c0] consecutive B-frames: 19.8% 21.5%  9.9% 48.8%\n",
      "[libx264 @ 0x5632196eb9c0] mb I  I16..4: 20.0% 70.4%  9.7%\n",
      "[libx264 @ 0x5632196eb9c0] mb P  I16..4:  2.9%  5.1%  0.3%  P16..4: 37.3%  3.8%  2.4%  0.0%  0.0%    skip:48.2%\n",
      "[libx264 @ 0x5632196eb9c0] mb B  I16..4:  0.1%  0.2%  0.0%  B16..8: 32.8%  0.3%  0.0%  direct: 0.1%  skip:66.4%  L0:38.6% L1:61.0% BI: 0.4%\n",
      "[libx264 @ 0x5632196eb9c0] 8x8 transform intra:62.2% inter:86.4%\n",
      "[libx264 @ 0x5632196eb9c0] coded y,uvDC,uvAC intra: 28.2% 25.7% 0.9% inter: 6.4% 3.0% 0.0%\n",
      "[libx264 @ 0x5632196eb9c0] i16 v,h,dc,p: 29% 39% 16% 16%\n",
      "[libx264 @ 0x5632196eb9c0] i8 v,h,dc,ddl,ddr,vr,hd,vl,hu: 15% 15% 43%  4%  5%  5%  5%  4%  5%\n",
      "[libx264 @ 0x5632196eb9c0] i4 v,h,dc,ddl,ddr,vr,hd,vl,hu: 19% 19% 17%  6% 10%  9%  9%  6%  5%\n",
      "[libx264 @ 0x5632196eb9c0] i8c dc,h,v,p: 73% 15% 11%  1%\n",
      "[libx264 @ 0x5632196eb9c0] Weighted P-Frames: Y:1.1% UV:0.0%\n",
      "[libx264 @ 0x5632196eb9c0] ref P L0: 73.3% 19.8%  5.6%  1.2%  0.0%\n",
      "[libx264 @ 0x5632196eb9c0] ref B L0: 97.2%  2.4%  0.3%\n",
      "[libx264 @ 0x5632196eb9c0] ref B L1: 99.4%  0.6%\n",
      "[libx264 @ 0x5632196eb9c0] kb/s:16421.84\n"
     ]
    }
   ],
   "source": [
    "video_path = \"day_iphone_forklift.MOV\"\n",
    "\n",
    "# Compress the video and replace if the compressed file is smaller\n",
    "output_file = \"compressed_day_iphone_forklift.mp4\"\n",
    "compress_video(video_path, output_file, crf=30)\n",
    "if os.path.exists(output_file):\n",
    "    original_size = os.path.getsize(video_path)\n",
    "    compressed_size = os.path.getsize(output_file)\n",
    "    if compressed_size < original_size:\n",
    "        os.replace(output_file, video_path)\n",
    "        print(f'Replaced {video_path} with {output_file} because it is smaller.')\n",
    "    else:\n",
    "        os.remove(output_file)\n",
    "        print(f'Removed {output_file} because it is not smaller than {video_path}.')"
   ]
  },
  {
   "cell_type": "code",
   "execution_count": 2,
   "id": "f4c9405c",
   "metadata": {},
   "outputs": [
    {
     "name": "stdout",
     "output_type": "stream",
     "text": [
      "Converting day_iphone_forklift.MOV to day_iphone_forklift.mp4...\n"
     ]
    },
    {
     "name": "stderr",
     "output_type": "stream",
     "text": [
      "ffmpeg version 4.2.7-0ubuntu0.1 Copyright (c) 2000-2022 the FFmpeg developers\n",
      "  built with gcc 9 (Ubuntu 9.4.0-1ubuntu1~20.04.1)\n",
      "  configuration: --prefix=/usr --extra-version=0ubuntu0.1 --toolchain=hardened --libdir=/usr/lib/x86_64-linux-gnu --incdir=/usr/include/x86_64-linux-gnu --arch=amd64 --enable-gpl --disable-stripping --enable-avresample --disable-filter=resample --enable-avisynth --enable-gnutls --enable-ladspa --enable-libaom --enable-libass --enable-libbluray --enable-libbs2b --enable-libcaca --enable-libcdio --enable-libcodec2 --enable-libflite --enable-libfontconfig --enable-libfreetype --enable-libfribidi --enable-libgme --enable-libgsm --enable-libjack --enable-libmp3lame --enable-libmysofa --enable-libopenjpeg --enable-libopenmpt --enable-libopus --enable-libpulse --enable-librsvg --enable-librubberband --enable-libshine --enable-libsnappy --enable-libsoxr --enable-libspeex --enable-libssh --enable-libtheora --enable-libtwolame --enable-libvidstab --enable-libvorbis --enable-libvpx --enable-libwavpack --enable-libwebp --enable-libx265 --enable-libxml2 --enable-libxvid --enable-libzmq --enable-libzvbi --enable-lv2 --enable-omx --enable-openal --enable-opencl --enable-opengl --enable-sdl2 --enable-libdc1394 --enable-libdrm --enable-libiec61883 --enable-nvenc --enable-chromaprint --enable-frei0r --enable-libx264 --enable-shared\n",
      "  libavutil      56. 31.100 / 56. 31.100\n",
      "  libavcodec     58. 54.100 / 58. 54.100\n",
      "  libavformat    58. 29.100 / 58. 29.100\n",
      "  libavdevice    58.  8.100 / 58.  8.100\n",
      "  libavfilter     7. 57.100 /  7. 57.100\n",
      "  libavresample   4.  0.  0 /  4.  0.  0\n",
      "  libswscale      5.  5.100 /  5.  5.100\n",
      "  libswresample   3.  5.100 /  3.  5.100\n",
      "  libpostproc    55.  5.100 / 55.  5.100\n",
      "Input #0, mov,mp4,m4a,3gp,3g2,mj2, from 'day_iphone_forklift.MOV':\n",
      "  Metadata:\n",
      "    major_brand     : qt  \n",
      "    minor_version   : 512\n",
      "    compatible_brands: qt  \n",
      "    encoder         : Lavf58.29.100\n",
      "  Duration: 00:00:41.01, start: 0.000000, bitrate: 8103 kb/s\n",
      "    Stream #0:0: Video: h264 (High) (avc1 / 0x31637661), yuv420p, 3840x2160 [SAR 1:1 DAR 16:9], 8099 kb/s, 59.98 fps, 59.98 tbr, 11997 tbn, 119.97 tbc (default)\n",
      "    Metadata:\n",
      "      handler_name    : VideoHandler\n",
      "      encoder         : Lavc58.54.100 libx264\n",
      "Stream mapping:\n",
      "  Stream #0:0 -> #0:0 (h264 (native) -> h264 (libx264))\n",
      "Press [q] to stop, [?] for help\n",
      "[libx264 @ 0x5b5e17214600] using SAR=1/1\n",
      "[libx264 @ 0x5b5e17214600] using cpu capabilities: MMX2 SSE2Fast SSSE3 SSE4.2 AVX FMA3 BMI2 AVX2\n",
      "[libx264 @ 0x5b5e17214600] profile High, level 5.2\n",
      "[libx264 @ 0x5b5e17214600] 264 - core 155 r2917 0a84d98 - H.264/MPEG-4 AVC codec - Copyleft 2003-2018 - http://www.videolan.org/x264.html - options: cabac=1 ref=3 deblock=1:0:0 analyse=0x3:0x113 me=hex subme=7 psy=1 psy_rd=1.00:0.00 mixed_ref=1 me_range=16 chroma_me=1 trellis=1 8x8dct=1 cqm=0 deadzone=21,11 fast_pskip=1 chroma_qp_offset=-2 threads=36 lookahead_threads=6 sliced_threads=0 nr=0 decimate=1 interlaced=0 bluray_compat=0 constrained_intra=0 bframes=3 b_pyramid=2 b_adapt=1 b_bias=0 direct=1 weightb=1 open_gop=0 weightp=2 keyint=250 keyint_min=25 scenecut=40 intra_refresh=0 rc_lookahead=40 rc=crf mbtree=1 crf=23.0 qcomp=0.60 qpmin=0 qpmax=69 qpstep=4 ip_ratio=1.40 aq=1:1.00\n",
      "Output #0, mp4, to 'day_iphone_forklift.mp4':\n",
      "  Metadata:\n",
      "    major_brand     : qt  \n",
      "    minor_version   : 512\n",
      "    compatible_brands: qt  \n",
      "    encoder         : Lavf58.29.100\n",
      "    Stream #0:0: Video: h264 (libx264) (avc1 / 0x31637661), yuv420p, 3840x2160 [SAR 1:1 DAR 16:9], q=-1--1, 59.98 fps, 11997 tbn, 59.98 tbc (default)\n",
      "    Metadata:\n",
      "      handler_name    : VideoHandler\n",
      "      encoder         : Lavc58.54.100 libx264\n",
      "    Side data:\n",
      "      cpb: bitrate max/min/avg: 0/0/0 buffer size: 0 vbv_delay: -1\n",
      "frame= 2444 fps= 69 q=31.0 size=  103424kB time=00:00:39.35 bitrate=21525.7kbits/s speed=1.12x     \r"
     ]
    },
    {
     "name": "stdout",
     "output_type": "stream",
     "text": [
      "Finished converting day_iphone_forklift.MOV to day_iphone_forklift.mp4.\n"
     ]
    },
    {
     "name": "stderr",
     "output_type": "stream",
     "text": [
      "frame= 2460 fps= 68 q=-1.0 Lsize=  107475kB time=00:00:40.96 bitrate=21494.9kbits/s speed=1.14x    \n",
      "video:107448kB audio:0kB subtitle:0kB other streams:0kB global headers:0kB muxing overhead: 0.025583%\n",
      "[libx264 @ 0x5b5e17214600] frame I:14    Avg QP:21.48  size:356755\n",
      "[libx264 @ 0x5b5e17214600] frame P:1172  Avg QP:25.06  size: 71203\n",
      "[libx264 @ 0x5b5e17214600] frame B:1274  Avg QP:29.81  size: 16940\n",
      "[libx264 @ 0x5b5e17214600] consecutive B-frames: 19.4% 30.1% 13.8% 36.7%\n",
      "[libx264 @ 0x5b5e17214600] mb I  I16..4: 14.6% 76.2%  9.1%\n",
      "[libx264 @ 0x5b5e17214600] mb P  I16..4:  1.8%  4.4%  0.2%  P16..4: 35.4%  6.9%  2.9%  0.0%  0.0%    skip:48.4%\n",
      "[libx264 @ 0x5b5e17214600] mb B  I16..4:  0.1%  0.2%  0.0%  B16..8: 37.0%  0.9%  0.1%  direct: 0.3%  skip:61.3%  L0:49.7% L1:49.1% BI: 1.3%\n",
      "[libx264 @ 0x5b5e17214600] 8x8 transform intra:70.0% inter:85.3%\n",
      "[libx264 @ 0x5b5e17214600] coded y,uvDC,uvAC intra: 34.9% 32.9% 2.6% inter: 7.1% 3.4% 0.0%\n",
      "[libx264 @ 0x5b5e17214600] i16 v,h,dc,p: 26% 38% 17% 20%\n",
      "[libx264 @ 0x5b5e17214600] i8 v,h,dc,ddl,ddr,vr,hd,vl,hu: 20% 21% 37%  3%  4%  4%  4%  3%  4%\n",
      "[libx264 @ 0x5b5e17214600] i4 v,h,dc,ddl,ddr,vr,hd,vl,hu: 24% 24% 14%  5%  8%  7%  8%  5%  5%\n",
      "[libx264 @ 0x5b5e17214600] i8c dc,h,v,p: 71% 16% 11%  2%\n",
      "[libx264 @ 0x5b5e17214600] Weighted P-Frames: Y:0.7% UV:0.0%\n",
      "[libx264 @ 0x5b5e17214600] ref P L0: 75.8% 14.9%  7.9%  1.4%  0.0%\n",
      "[libx264 @ 0x5b5e17214600] ref B L0: 95.7%  4.0%  0.3%\n",
      "[libx264 @ 0x5b5e17214600] ref B L1: 99.1%  0.9%\n",
      "[libx264 @ 0x5b5e17214600] kb/s:21463.12\n"
     ]
    }
   ],
   "source": [
    "# Transform all .MOV files to .mp4 files using ffmpeg\n",
    "def convert_mov_to_mp4(input_file, output_file):\n",
    "    command = [\n",
    "        'ffmpeg',\n",
    "        '-i', input_file,\n",
    "        '-vcodec', 'libx264',\n",
    "        '-crf', '23',\n",
    "        output_file\n",
    "    ]\n",
    "    subprocess.run(command, check=True)\n",
    "for file in os.listdir('.'):\n",
    "    if file.endswith('.MOV'):\n",
    "        output_file = file.replace('.MOV', '.mp4')\n",
    "        print(f'Converting {file} to {output_file}...')\n",
    "        convert_mov_to_mp4(file, output_file)\n",
    "        print(f'Finished converting {file} to {output_file}.')\n",
    "        "
   ]
  },
  {
   "cell_type": "code",
   "execution_count": null,
   "id": "063830a6",
   "metadata": {},
   "outputs": [],
   "source": []
  }
 ],
 "metadata": {
  "kernelspec": {
   "display_name": "ros2foxy",
   "language": "python",
   "name": "python3"
  },
  "language_info": {
   "codemirror_mode": {
    "name": "ipython",
    "version": 3
   },
   "file_extension": ".py",
   "mimetype": "text/x-python",
   "name": "python",
   "nbconvert_exporter": "python",
   "pygments_lexer": "ipython3",
   "version": "3.8.10"
  }
 },
 "nbformat": 4,
 "nbformat_minor": 5
}
